<svg xmlns="http://www.w3.org/2000/svg" width="512" height="512" viewBox="0 0 512 512">
  <defs>
    <linearGradient id="bg" x1="0%" y1="0%" x2="100%" y2="100%">
      <stop offset="0%" style="stop-color:#1a1a2e"/>
      <stop offset="100%" style="stop-color:#16213e"/>
    </linearGradient>
    <linearGradient id="accent" x1="0%" y1="0%" x2="100%" y2="100%">
      <stop offset="0%" style="stop-color:#4a90d9"/>
      <stop offset="100%" style="stop-color:#10b981"/>
    </linearGradient>
  </defs>
  <rect width="512" height="512" rx="80" fill="url(#bg)"/>
  <!-- Sound waves -->
  <g fill="none" stroke="url(#accent)" stroke-width="10" stroke-linecap="round">
    <!-- Center microphone icon -->
    <circle cx="256" cy="200" r="44" fill="url(#accent)"/>
    <rect x="232" y="244" width="48" height="72" rx="6" fill="url(#accent)"/>
    <path d="M180 280 C180 352, 332 352, 332 280" stroke-width="10"/>
    <line x1="256" y1="352" x2="256" y2="400"/>
    <line x1="200" y1="400" x2="312" y2="400"/>
    <!-- Sound waves emanating -->
    <path d="M128 150 Q 96 256, 128 362" opacity="0.5"/>
    <path d="M80 110 Q 32 256, 80 402" opacity="0.3"/>
    <path d="M48 80 Q -16 256, 48 432" opacity="0.15"/>
    <path d="M384 150 Q 416 256, 384 362" opacity="0.5"/>
    <path d="M432 110 Q 480 256, 432 402" opacity="0.3"/>
    <path d="M464 80 Q 528 256, 464 432" opacity="0.15"/>
  </g>
</svg>
